<?xml version="1.0" standalone="no"?>
<!DOCTYPE svg PUBLIC "-//W3C//DTD SVG 20010904//EN"
 "http://www.w3.org/TR/2001/REC-SVG-20010904/DTD/svg10.dtd">
<svg version="1.0" xmlns="http://www.w3.org/2000/svg"
 width="1500.000000pt" height="300.000000pt" viewBox="0 0 1500.000000 300.000000"
 preserveAspectRatio="xMidYMid meet">

<g transform="translate(0.000000,300.000000) scale(0.100000,-0.100000)"
fill="#000000" stroke="none">
<path d="M2170 2894 c0 -6 -14 -100 -30 -210 -17 -109 -46 -305 -65 -434 -19
-129 -38 -248 -41 -264 -6 -28 -23 -12 -447 410 -242 242 -431 423 -419 404
11 -19 153 -252 315 -517 163 -266 294 -483 291 -483 -2 0 -120 57 -262 126
-292 143 -402 195 -402 190 0 -2 135 -100 300 -218 165 -117 300 -216 300
-219 0 -3 -342 -43 -760 -89 -418 -46 -760 -86 -760 -90 0 -3 342 -44 760 -90
418 -46 760 -86 760 -89 0 -3 -135 -102 -300 -219 -165 -118 -300 -216 -300
-218 0 -5 110 47 402 190 142 69 260 126 262 126 3 0 -128 -217 -291 -482
-162 -266 -304 -499 -315 -518 -12 -19 177 162 419 404 424 422 441 438 447
410 3 -16 24 -150 46 -299 80 -533 91 -610 96 -614 2 -2 4 0 4 5 0 6 14 100
30 210 17 109 46 305 65 434 19 129 38 248 41 264 6 28 23 12 447 -410 242
-242 431 -423 419 -404 -11 19 -153 252 -315 518 -163 265 -294 482 -291 482
2 0 120 -57 262 -126 292 -143 402 -195 402 -190 0 2 -135 100 -300 218 -165
117 -300 216 -300 219 0 3 342 43 760 89 418 46 760 87 760 90 0 4 -342 44
-760 90 -418 46 -760 86 -760 89 0 3 135 102 300 219 165 118 300 216 300 218
0 5 -110 -47 -402 -190 -142 -69 -260 -126 -262 -126 -3 0 128 217 291 483
162 265 304 498 315 517 12 19 -177 -162 -419 -404 -424 -422 -441 -438 -447
-410 -3 16 -24 151 -46 299 -80 533 -91 610 -96 614 -2 2 -4 0 -4 -5z"/>
<path d="M7389 2061 c-133 -43 -238 -160 -287 -321 -33 -110 -55 -267 -49
-349 15 -192 138 -303 318 -288 190 16 338 174 390 417 51 240 32 388 -60 480
-78 78 -191 100 -312 61z m243 -54 c115 -67 146 -192 105 -412 -30 -159 -55
-227 -111 -303 -144 -195 -411 -204 -509 -17 -49 94 -23 376 49 525 36 75 105
156 162 192 88 54 226 61 304 15z"/>
<path d="M8246 2069 c-66 -16 -157 -70 -189 -114 -39 -54 -48 -81 -49 -140 -1
-95 54 -156 181 -201 207 -74 236 -87 278 -128 161 -160 -88 -393 -359 -337
-105 22 -177 101 -178 194 0 31 -3 38 -17 35 -15 -3 -18 -13 -16 -57 6 -142
140 -231 327 -218 195 13 326 122 326 271 0 116 -64 174 -270 241 -201 66
-261 129 -230 244 33 123 223 209 380 171 92 -22 160 -108 160 -202 0 -18 5
-28 15 -28 24 0 19 96 -8 150 -25 50 -94 103 -155 120 -44 12 -142 12 -196 -1z"/>
<path d="M12449 2061 c-133 -43 -238 -160 -287 -321 -33 -110 -55 -267 -49
-349 15 -192 138 -303 318 -288 190 16 338 174 390 417 51 240 32 388 -60 480
-78 78 -191 100 -312 61z m243 -54 c115 -67 146 -192 105 -412 -30 -159 -55
-227 -111 -303 -144 -195 -411 -204 -509 -17 -49 94 -23 376 49 525 36 75 105
156 162 192 88 54 226 61 304 15z"/>
<path d="M4588 1590 c-223 -417 -253 -480 -235 -480 18 0 37 28 97 140 l75
140 227 0 226 0 10 -47 c6 -27 19 -90 28 -140 15 -77 21 -93 36 -93 10 0 18 4
18 8 0 8 -144 764 -171 900 -9 44 -14 52 -32 52 -19 0 -60 -71 -279 -480z
m326 158 c26 -145 50 -275 53 -290 l6 -28 -212 0 c-116 0 -211 2 -211 5 0 11
305 575 310 575 3 0 27 -118 54 -262z"/>
<path d="M5306 1618 c-43 -249 -80 -465 -83 -481 l-6 -27 259 2 c237 3 259 4
262 21 3 16 -13 17 -237 17 l-241 0 5 23 c6 25 155 883 155 891 0 3 -8 6 -18
6 -16 0 -27 -53 -96 -452z"/>
<path d="M5986 1613 c-43 -252 -80 -468 -83 -480 -4 -18 -1 -23 14 -23 17 0
26 41 92 428 40 235 75 436 78 447 4 12 49 -151 108 -385 130 -515 123 -490
139 -490 7 0 132 198 277 440 145 242 265 436 267 431 3 -8 -128 -783 -143
-848 -4 -18 -1 -23 15 -23 11 0 20 3 20 6 0 4 36 214 80 468 44 254 80 467 80
474 0 7 -11 12 -25 12 -22 0 -54 -50 -294 -451 -148 -248 -271 -447 -273 -442
-3 4 -54 207 -113 451 -108 439 -109 442 -135 442 l-25 0 -79 -457z"/>
<path d="M8760 2050 c0 -19 7 -20 165 -20 135 0 165 -3 165 -14 0 -8 -34 -209
-75 -447 -41 -239 -75 -439 -75 -446 0 -22 29 -14 35 10 5 22 155 885 155 893
0 2 77 4 170 4 163 0 170 1 170 20 0 20 -7 20 -355 20 -348 0 -355 0 -355 -20z"/>
<path d="M9876 1613 c-44 -252 -82 -468 -84 -480 l-4 -23 180 0 c235 0 288 14
373 99 46 46 61 70 74 116 34 117 0 211 -93 257 l-50 25 35 12 c107 39 183
190 153 302 -17 62 -72 111 -147 132 -43 12 -100 17 -209 17 l-149 0 -79 -457z
m415 406 c37 -8 64 -22 93 -49 40 -38 41 -40 41 -107 0 -56 -5 -76 -28 -116
-57 -96 -151 -129 -354 -125 l-128 3 35 203 35 202 127 0 c70 0 150 -5 179
-11z m-24 -454 c36 -11 62 -27 88 -56 36 -41 37 -43 33 -109 -4 -84 -42 -150
-111 -197 -64 -43 -122 -53 -298 -53 -138 0 -150 1 -145 18 2 9 19 100 36 202
17 102 33 191 35 198 6 19 296 17 362 -3z"/>
<path d="M10676 1613 c-44 -252 -82 -468 -84 -480 l-4 -23 286 0 c279 0 286 0
286 20 0 19 -7 20 -265 20 l-265 0 5 23 c3 12 19 101 35 197 17 96 33 183 36
193 5 16 25 17 240 17 227 0 234 1 234 20 0 19 -7 20 -233 20 l-233 0 35 205
36 205 267 0 c261 0 268 0 268 20 0 20 -7 20 -283 20 l-282 0 -79 -457z"/>
<path d="M11426 1613 c-43 -252 -80 -468 -83 -480 -4 -18 -1 -23 14 -23 17 0
23 25 59 233 l40 232 239 5 c217 5 240 7 243 22 3 16 -15 18 -235 20 l-238 3
35 203 35 202 272 0 c266 0 273 0 273 20 0 20 -7 20 -288 20 l-287 0 -79 -457z"/>
<path d="M13130 2064 c0 -4 -36 -215 -80 -469 -44 -254 -80 -468 -80 -474 0
-18 28 -13 34 7 6 19 66 369 66 383 0 5 73 9 163 9 l162 0 89 -205 c70 -162
92 -205 107 -205 11 0 19 2 19 4 0 3 -38 94 -85 203 -47 109 -83 203 -81 209
2 5 22 16 44 22 22 7 63 33 92 59 130 117 148 303 37 398 -63 54 -114 65 -314
65 -95 0 -173 -3 -173 -6z m386 -49 c196 -58 180 -319 -26 -426 -42 -22 -59
-24 -227 -27 -101 -2 -183 -2 -183 0 0 2 18 105 40 228 22 124 40 228 40 233
0 14 303 8 356 -8z"/>
<path d="M13916 1613 c-44 -252 -82 -468 -84 -480 l-4 -23 286 0 c279 0 286 0
286 20 0 19 -7 20 -265 20 l-265 0 5 23 c3 12 19 101 35 197 17 96 33 183 36
193 5 16 25 17 240 17 227 0 234 1 234 20 0 19 -7 20 -233 20 l-233 0 35 205
36 205 267 0 c261 0 268 0 268 20 0 20 -7 20 -283 20 l-282 0 -79 -457z"/>
</g>
</svg>
